<?xml version="1.0" standalone="no"?>
<!DOCTYPE svg PUBLIC "-//W3C//DTD SVG 20010904//EN"
 "http://www.w3.org/TR/2001/REC-SVG-20010904/DTD/svg10.dtd">
<svg version="1.0" xmlns="http://www.w3.org/2000/svg"
 width="1024.000000pt" height="1024.000000pt" viewBox="0 0 1024.000000 1024.000000"
 preserveAspectRatio="xMidYMid meet">
<metadata>
Created by potrace 1.14, written by Peter Selinger 2001-2017
</metadata>
<g transform="translate(0.000000,1024.000000) scale(0.100000,-0.100000)"
fill="#000000" stroke="none">
<path d="M2839 9596 c-2 -2 -69 -7 -149 -10 -80 -4 -163 -9 -185 -11 -92 -11
-221 -27 -240 -31 -141 -26 -253 -56 -365 -96 -86 -31 -273 -119 -300 -142 -8
-7 -22 -15 -31 -19 -40 -13 -235 -172 -335 -272 -164 -164 -273 -312 -370
-505 -55 -111 -128 -325 -149 -437 -3 -16 -7 -39 -10 -53 -2 -13 -7 -42 -10
-65 -3 -22 -8 -47 -10 -55 -2 -8 -7 -44 -10 -80 -4 -36 -9 -76 -11 -90 -15
-120 -19 -599 -19 -2615 0 -2071 3 -2455 20 -2612 3 -24 7 -60 9 -80 45 -409
172 -737 394 -1015 232 -291 525 -507 836 -617 82 -29 243 -73 311 -85 17 -3
41 -8 55 -10 43 -9 168 -24 250 -32 180 -16 615 -19 2590 -19 2005 0 2508 4
2625 20 17 2 55 6 85 10 110 13 137 17 250 41 120 26 226 57 319 94 77 30 205
93 209 102 2 4 8 8 14 8 21 0 185 116 283 201 269 232 454 496 560 800 34 96
78 271 89 350 28 194 33 245 43 407 10 154 10 4755 0 4897 -30 433 -90 692
-219 950 -143 284 -383 552 -664 740 -78 53 -280 156 -339 174 -22 7 -49 16
-60 21 -67 29 -287 79 -415 95 -30 4 -62 9 -71 10 -9 2 -56 6 -105 10 -48 4
-100 10 -114 13 -28 5 -4755 14 -4761 8z"/>
</g>
</svg>
